<?xml version="1.0" encoding="utf-8"?>
<!-- Generator: Adobe Illustrator 19.0.0, SVG Export Plug-In . SVG Version: 6.00 Build 0)  -->
<svg version="1.1" id="Ñëîé_1" xmlns="http://www.w3.org/2000/svg" xmlns:xlink="http://www.w3.org/1999/xlink" x="0px" y="0px"
	 viewBox="0 0 293.4 248.6" style="enable-background:new 0 0 293.4 248.6;" xml:space="preserve">
<style type="text/css">
	.st0{fill:#C4D9E8;}
	.st1{fill:#5793CE;}
	.st2{fill:#D4ECFF;}
	.st3{fill:#173D7A;}
	.st4{fill:#FFFFFF;}
	.st5{fill:#396CAA;}
	.st6{fill:#D3D0CF;}
	.st7{fill:#F2F2F2;}
	.st8{fill:#FFC2B0;}
	.st9{fill:#EA9C92;}
	.st10{fill:#FF2C9C;}
	.st11{fill:#274F89;}
	.st12{fill:#D3008D;}
</style>
<g>
	<path class="st0" d="M136.4,56.2L86,85.7C73.3,81.8,57,83,46.3,89.3c-13.1,7.7-13,20,0.2,27.4c3,1.7,6.3,3,9.9,3.9
		c2.5,0.6,5.2,1.1,7.9,1.4c10.5,1,21.7-0.8,29.7-5.6c9.8-5.7,12.2-14,7.3-21l7-4.1l-0.2-4.4l7.3-0.1l-0.2-4.1l7.3-0.1l-0.2-4.1
		l7.3-0.1l-0.2-4.1l7.3-0.1l-0.2-4.1l7.8-0.1l2.4-1.4l2.6-10.9L136.4,56.2z M65.5,112.7c-3.4,2-8.9,2-12.4,0.1
		c-3.4-1.9-3.5-5.1-0.1-7.1c3.4-2,8.9-2,12.4-0.1C68.9,107.5,68.9,110.7,65.5,112.7z"/>
	<path class="st0" d="M164,243.2l-68-39.1c-4.6-2.6-4-7.3,1.3-10.3l66-38.1c5.3-3.1,13.3-3.4,17.9-0.7l68,39.1
		c4.6,2.6,4,7.3-1.3,10.3l-66,38.1C176.6,245.5,168.6,245.8,164,243.2z"/>
	<g>
		<g>
			<path class="st1" d="M243.7,154.6l-11.8-6.8l43.3-25c2-1.2,2-3.1,0-4.3L231,93c-2-1.2-5.4-1.2-7.4,0l-43.3,25l-11.8-6.8l43.3-25
				c8.5-4.9,22.4-4.9,30.9,0l44.3,25.6c8.5,4.9,8.5,12.9,0,17.9L243.7,154.6z"/>
		</g>
		<g>
			<path class="st2" d="M262.7,157.6c0-6.3-3.8-13.6-8.5-16.3L175.6,96c-2.1-1.2-4-1.3-5.5-0.5l0,0L76.4,150l90.6,68.3l92.3-53.6
				c0.3-0.1,0.6-0.3,0.8-0.5l0,0l0,0C261.7,163,262.7,160.7,262.7,157.6z"/>
			<path class="st3" d="M167,218.3l92.3-53.6c0.3-0.1,0.6-0.3,0.8-0.5l0,0l0,0c1.5-1.2,2.5-3.5,2.5-6.6c0-3-0.9-6.2-2.3-9.1
				l-105.3,60.8L167,218.3z"/>
			<path class="st1" d="M161.1,218l-78.5-45.3c-4.7-2.7-8.5-10-8.5-16.3l0,0c0-6.3,3.8-9.2,8.5-6.4l78.5,45.3
				c4.7,2.7,8.5,10,8.5,16.3l0,0C169.6,217.8,165.8,220.7,161.1,218z"/>
		</g>
		<path class="st4" d="M149.4,202.7l-9.4-5.4c-0.9-0.5-1.7-2-1.7-3.2l0,0c0-1.3,0.8-1.8,1.7-1.3l9.4,5.4c0.9,0.5,1.7,2,1.7,3.2l0,0
			C151.1,202.7,150.3,203.3,149.4,202.7z"/>
	</g>
	<g>
		<g>
			<polygon class="st5" points="78.5,43.1 94.6,52.3 111.1,42.6 111,38.4 110.9,38.5 110.9,38.2 118.2,38.2 118.1,34 125.3,34 
				125.3,29.9 132.5,29.8 132.4,25.7 139.6,25.6 139.6,21.5 147.2,21.4 149.6,20 152.2,9.2 152.2,5 150.9,9 139.3,7.5 			"/>
			<g>
				<g>
					<g>
						<g>
							<g>
								<polygon class="st2" points="94.6,48.1 111,38.4 110.8,34 118.1,34 118,29.8 125.3,29.8 125.1,25.7 132.4,25.6 132.2,21.5 
									139.6,21.4 139.4,17.3 147.2,17.2 149.6,15.8 152.2,5 139.3,3.3 78.4,38.9 								"/>
							</g>
						</g>
						<g>
							<g>
								<path class="st5" d="M105.5,41.7c-1.7-2.4-4.1-4.6-7.5-6.4c-2.3-1.3-5-2.4-7.7-3.3l-11.9,7l16.1,9.2L105.5,41.7z"/>
							</g>
						</g>
						<g>
							<g>
								<polygon class="st1" points="151.8,6.8 152.2,5 150,4.7 98.6,34.8 101.3,36.4 								"/>
							</g>
						</g>
						<g>
							<g>
								<polygon class="st6" points="39.5,56.4 39.3,50.4 41.2,54.4 								"/>
							</g>
						</g>
						<path class="st5" d="M49.4,69.8c13.2,7.5,34.5,7.3,47.5-0.3c6.6-3.8,9.8-8.8,9.7-13.8l0,0l-0.2-6.3l-1.1,1.2
							c-1.5-3.1-4.4-6.1-8.7-8.5c-13.2-7.5-34.5-7.3-47.5,0.3C36.2,50.1,36.3,62.3,49.4,69.8z M68.5,58.7c3.4,1.9,3.5,5.1,0.1,7.1
							c-3.4,2-8.9,2-12.4,0.1c-3.4-1.9-3.5-5.1,0-7.1C59.5,56.7,65,56.7,68.5,58.7z"/>
						<g>
							<g>
								<path class="st7" d="M49.3,63.9c13.2,7.5,34.5,7.3,47.5-0.3c13.1-7.7,13-20-0.2-27.4c-13.2-7.5-34.5-7.3-47.5,0.3
									C36,44.1,36.1,56.4,49.3,63.9z M68.3,52.7c3.4,1.9,3.5,5.1,0.1,7.1c-3.4,2-8.9,2-12.4,0.1c-3.4-1.9-3.5-5.1-0.1-7.1
									C59.3,50.8,64.9,50.7,68.3,52.7z"/>
							</g>
						</g>
						<path class="st1" d="M64.5,67.1c-2.9,0.5-6.1,0.1-8.4-1.2c-2.5-1.4-3.2-3.4-2.1-5.2l-6-4.7c0,0-3.1-3.5-6.2-7
							c-4.8,7-2.3,15.3,7.6,20.9c4.3,2.5,9.2,3.9,14.7,4.7L64.5,67.1z"/>
						<g>
							<g>
								<path class="st2" d="M49.3,63.9c3,1.7,6.3,3,9.9,3.9c2.5,0.6,5.2,1.1,7.9,1.4c10.5,1,21.7-0.8,29.7-5.6
									c13.1-7.7,13-20-0.2-27.4c-13.2-7.5-34.5-7.3-47.5,0.3C36,44.1,36.1,56.4,49.3,63.9z M68.3,52.7c3.4,1.9,3.5,5.1,0.1,7.1
									c-3.4,2-8.9,2-12.4,0.1c-3.4-1.9-3.5-5.1-0.1-7.1C59.3,50.8,64.9,50.7,68.3,52.7z"/>
							</g>
						</g>
						<g>
							<g>
								<g>
									<path class="st5" d="M43,50.3c0.6-3.8,3.5-7.6,8.5-10.5c11.6-6.8,30.6-7,42.3-0.3c5.8,3.3,8.8,7.7,8.8,12.1
										c0.8-5-2.1-10.1-8.7-13.9c-11.7-6.7-30.7-6.5-42.3,0.3C45.9,41.3,43,45.8,43,50.3z"/>
								</g>
							</g>
						</g>
					</g>
					<g>
						<g>
							<g>
								<g>
									<path class="st5" d="M35.1,104.6c-2.4,0-4.6-0.6-6.6-1.7c-4.7-2.7-7.3-8.1-7.4-15.2C21,74.8,30,58.9,41.2,52.3
										c6.1-3.6,12.1-4.1,16.8-1.4c2,1.1,3.7,2.8,4.9,4.9c1.6,2.8,2.5,6.2,2.5,10.3c0.1,12.9-8.9,28.8-20.1,35.4
										C41.8,103.5,38.3,104.6,35.1,104.6z M51.4,54c-2.4,0-5,0.8-7.8,2.5c-9.9,5.8-17.8,19.8-17.7,31.2c0,5.3,1.8,9.3,5,11.1
										c3.2,1.8,7.5,1.3,12.1-1.4c9.9-5.8,17.8-19.8,17.7-31.2c0-3.1-0.7-5.9-1.9-7.9l0,0c-0.8-1.4-1.9-2.4-3.1-3.2
										C54.4,54.3,53,54,51.4,54z"/>
								</g>
							</g>
						</g>
					</g>
				</g>
			</g>
		</g>
		<path class="st2" d="M57.6,64.5l9.4,2.3l1.3-7c-3.4,2-8.9,2-12.4,0.1L57.6,64.5z"/>
		<path class="st2" d="M49.3,63.9c3,1.7,6.3,3,9.9,3.9c2.5,0.6,5.2,1.1,7.9,1.4c10.5,1,21.7-0.8,29.7-5.6l-38.2-0.9L49.3,63.9z"/>
		<path class="st5" d="M63.4,68.7c0,0-4.1-0.7-8.3-2.1v5.9c2,0.7,5.3,1.7,8.2,2.1C72,75.7,63.4,68.7,63.4,68.7z"/>
	</g>
	<path class="st1" d="M57.3,67.2c-1.7-0.5-3.6-1.2-5.4-2c-5.1-2.4,1.4,6.5,1.4,6.5s1.7,0.7,4.1,1.4V67.2z"/>
</g>
<polygon class="st1" points="153.1,170.2 136.4,181 128.3,179.7 148.2,170.1 "/>
<g>
	<g>
		<path class="st3" d="M132.9,224.7c0,0-4.8-2.4-7.8,1.2c-3,3.6-7.2,12.2-7.3,17.9c-0.1,5.8,4.6,5.4,7.4,4
			c2.8-1.4,10.9-13.2,11.4-15.5c0.5-2.3-0.6-5.5-1.4-6.1C134.5,225.6,132.9,224.7,132.9,224.7z"/>
		<path class="st1" d="M134,223.5l0.2,5c0,1.1-0.5,2.1-1.4,2.6c-0.8,0.5-2.1,0.8-3.7,0.6c-3.6-0.6-4-1.6-4.2-6.6
			C124.6,220.1,134,223.5,134,223.5z"/>
		<g>
			<path class="st3" d="M115.3,215.1c0,0-4.8-2.4-7.8,1.2c-3,3.6-7.2,12.2-7.3,17.9c-0.1,5.8,4.6,5.4,7.4,4
				c2.8-1.4,10.9-13.2,11.4-15.5c0.5-2.3-0.6-5.5-1.4-6.1C116.9,216,115.3,215.1,115.3,215.1z"/>
			<path class="st1" d="M116.3,213.9l0.2,5c0,1.1-0.5,2.1-1.4,2.6c-0.8,0.5-2.1,0.8-3.7,0.6c-3.6-0.6-4-1.6-4.2-6.6
				C107,210.5,116.3,213.9,116.3,213.9z"/>
			<path class="st2" d="M159.3,122.3c-1.4-23.2-25.1,3.4-25.1,3.4L118,141.6l-14.6,16c-2.9,3.1-4.2,7.4-3.6,11.6l5.9,45
				c0.3,2.2,2.2,3.9,4.4,3.8c0.6,0,1.4-0.1,2.2-0.2c5.3-0.8,4.9-5.8,4.9-5.8l-1.1-42.1l30.7-18.5
				C146.7,151.5,160.7,145.5,159.3,122.3z"/>
		</g>
		<path class="st1" d="M127.8,162l-4.4-1.6c-0.1,0-7.4,7.1-7.4,9.5l3.3,1.1l8.2-8L127.8,162z"/>
		<path class="st1" d="M153.1,170.2c0,0,18.2-10.4,20.4-14.8c0.9-1.7,2.2-3.5-3.1-6.1l-24.3,17.3l1.1,6L153.1,170.2z"/>
		<path class="st2" d="M176.9,131.3c-1.5-23.2-25.1,3.4-25.1,3.4l-16.2,15.9l-14.6,16c-2.9,3.1-4.2,7.4-3.6,11.6l5.9,45
			c0.3,2.2,2.2,3.9,4.4,3.8c0.6,0,1.4-0.1,2.2-0.2c5.3-0.8,4.9-5.8,4.9-5.8l-1.1-42.1l30.7-18.5
			C164.4,160.4,178.3,152.5,176.9,131.3z"/>
		<path class="st1" d="M162.9,56.7c18,7.4,17.6,18.1,17.6,18.1s-3.5,38.9-2.3,64.9c0.5,10.9-57.7,11.7-49-17.3
			c10.2-34.2,6.4-61.8,11.2-66C145.1,52.2,158.3,54.8,162.9,56.7z"/>
		
			<ellipse transform="matrix(0.9684 0.2494 -0.2494 0.9684 20.9713 -37.8261)" class="st8" cx="159.7" cy="63.8" rx="9.3" ry="6.8"/>
		<path class="st4" d="M161.1,71.7c-1.1,0-2.1-0.1-3.2-0.4c-2.6-0.7-4.8-2-6.3-3.9c-1.5-1.9-2.1-4.1-1.6-6.1
			c1.1-4.1,6.3-6.3,11.7-4.9c2.6,0.7,4.8,2,6.3,3.9c1.6,1.9,2.1,4.1,1.6,6.1C168.7,69.6,165.2,71.7,161.1,71.7z M158.4,57.7
			c-3.3,0-6.1,1.6-6.8,4c-0.4,1.5,0.1,3.1,1.3,4.6c1.3,1.5,3.2,2.7,5.4,3.3c4.5,1.2,8.8-0.5,9.6-3.7c0.4-1.5-0.1-3.1-1.3-4.6
			c-1.3-1.5-3.2-2.7-5.4-3.3C160.2,57.8,159.3,57.7,158.4,57.7z"/>
		<path class="st8" d="M155.7,55.9c0,0,0.2,0.7-0.2,6.4c-0.1,1.8,6.2,3.5,7.8,1.8c1.6-1.6,1-3.3,1.4-9.4
			C165.1,48.7,155.7,55.9,155.7,55.9z"/>
		<path class="st9" d="M164.7,54.8c0,0-1.5,5.6-9.1,7.8l0.1-5.1L164.7,54.8z"/>
		<circle class="st8" cx="156.1" cy="43.9" r="13.8"/>
		<path class="st9" d="M159.3,44.4c0,0-7.6,3.3-12.9,3.3c-5.3,0-4.1-4.4-4.1-4.4l15.6-2.3L159.3,44.4z"/>
		<path class="st10" d="M144.9,45.3c0,0,6.6-2.8,12.4-1.6c1.4,0.3,2.6,1,3.5,2.1c0.3,0.4,0.7,0.7,1.1,0.8c1,0.2,2.7-4,4.7-4.1
			c2-0.1,3.3,1.3,1.7,4c-1.6,2.6-1.1,5.6-0.3,6c0.8,0.4,8.8-5.7,1.7-19.7c-7.1-14-25-6.5-27.8-3.6c0,0-2.9,2.6-5.3,0.3
			C136.5,29.2,133.8,49.3,144.9,45.3z"/>
		<path class="st8" d="M170.4,103.2v10.5c0,1.2-0.5,2.4-1.4,3.2l-21.6,19.7l2.5,3.8l28.5-20.7c1.3-1,2.2-2.5,2.4-4.1l1.9-18.3
			L170.4,103.2z"/>
		<path class="st1" d="M179,69.5c0,0,6.6,9.9,9,35.8c0,0-11.2,3.6-17.5,1.6C164.1,104.8,179,69.5,179,69.5z"/>
		<path class="st5" d="M169.2,82c0,0-2.6,13.7-2.7,20.2c0,1.8,1,3.4,2.7,4l0,0V82z"/>
	</g>
	<g>
		<path class="st3" d="M163.6,150.3l-4.8-0.6l-30.8-17.8c-1-0.6-2.7-0.5-3.9,0.2l-21.8,12.6l-2.9-0.4v2.9l0,0c0,0.4,0.2,0.7,0.7,1
			l34.9,20.2c1,0.6,2.7,0.5,3.9-0.2l23.8-13.7c0.6-0.4,1-0.8,0.9-1.3h0V150.3z"/>
		<path class="st5" d="M140.5,139l-2.2-1.3h-24.1l-11.9,6.8l-2.9-0.4v2.9l0,0c0,0.4,0.2,0.7,0.7,1l34.9,20.2c0.5,0.3,1.3,0.4,2,0.4
			L140.5,139z"/>
		<path class="st1" d="M100.8,144.4l-1.3-0.2v2.9l0,0c0,0.4,0.2,0.7,0.7,1l0.6,0.4V144.4z"/>
		<path class="st11" d="M135.4,168.4c0.9,0.4,2.3,0.3,3.3-0.2v-4.9h-3.3V168.4z"/>
		<path class="st4" d="M135.1,165.4l-34.9-20.2c-1-0.6-0.9-1.6,0.3-2.2l23.8-13.7c1.1-0.7,2.9-0.7,3.9-0.2l34.9,20.2
			c1,0.6,0.9,1.6-0.3,2.2l-23.8,13.7C137.8,165.9,136.1,166,135.1,165.4z"/>
		<path class="st2" d="M134.5,162.3l-29-16.8c-0.8-0.5-0.7-1.3,0.2-1.9l12.7-7.2c0.9-0.5,2.4-0.6,3.2-0.1l29,16.8
			c0.8,0.5,0.7,1.3-0.2,1.9l-12.7,7.2C136.7,162.8,135.3,162.8,134.5,162.3z"/>
	</g>
	<path class="st8" d="M125.5,128.6l-0.4,2.4c-0.3,2.1-0.3,4.1,0.2,6.2l0.4,2.1c0.2,1.2,1.2,2.1,2.4,2.3l0,0c0.9,0.2,1.8-0.5,1.9-1.4
		l0.6-5.2c0,0,1.3,1.7,2,1.7c0.6,0-0.7-5.2-2.2-8.1C129,125.8,125.5,128.6,125.5,128.6z"/>
	<path class="st8" d="M137.4,90.3l-3.7,7.4c-0.9,1.8-1.4,3.7-1.5,5.6l-1.6,25.4l-4.9-0.1l-2.2-28.5c-0.1-0.9,0-1.8,0.1-2.6l2.6-14.4
		L137.4,90.3z"/>
	<g>
		<path class="st3" d="M133.9,167.3l-2.9-3.8l-30.8-17.8c-1-0.6-1.8-2.1-1.8-3.4l0-25.2l-1.8-2.3l1.7-1l0,0c0.3-0.2,0.7-0.2,1.2,0.1
			l34.9,20.2c1,0.6,1.8,2.1,1.8,3.4l0,27.5c0,0.7-0.3,1.3-0.7,1.5h0L133.9,167.3z"/>
		<path class="st5" d="M112.6,152.9l-2.2-1.3l-12-20.9l0-13.7l-1.8-2.3l1.7-1l0,0c0.3-0.2,0.7-0.2,1.2,0.1l34.9,20.2
			c0.5,0.3,1,0.9,1.3,1.5L112.6,152.9z"/>
		<path class="st1" d="M97.4,115.8l-0.8-1l1.7-1l0,0c0.3-0.2,0.7-0.2,1.2,0.1l0.6,0.4L97.4,115.8z"/>
		<path class="st11" d="M134.7,134.3c0.8,0.6,1.4,1.8,1.5,2.9l-3.4,2l-1.6-2.8L134.7,134.3z"/>
		<path class="st1" d="M132.7,135l-34.9-20.2c-1-0.6-1.8,0-1.8,1.4l0,27.5c0,1.3,0.8,2.8,1.8,3.4l34.9,20.2c1,0.6,1.8,0,1.8-1.4
			l0-27.5C134.5,137.1,133.7,135.6,132.7,135z"/>
	</g>
	<path class="st8" d="M149.9,140.3l-0.6,1.2c-0.6,1.3-1.7,2.5-2.9,3.2l-3.5,2.1c-1.1,0.7-2.4,0.7-3.5,0.1c0,0-0.1,0-0.1-0.1
		c-1.1-0.7-1.2-2.3-0.3-3.2l3.6-3.7c0,0-2,1.6-2.6,0.9c-0.4-0.5,2-2.7,3.8-2.8c1.8-0.1,3.6-1.5,3.6-1.5L149.9,140.3z"/>
	<path class="st1" d="M140.7,56.3c0,0-13.3,14.5-18.6,27.7c0,0,4.5,8.2,15.7,11.4C148.9,98.6,140.7,56.3,140.7,56.3z"/>
	<path class="st5" d="M135.2,94.6l2.2-20.8l-5.1,19.5C133.2,93.7,134.2,94.2,135.2,94.6z"/>
	<path class="st4" d="M150.7,53.4l-3.6-1c0,0,1.7,2.7,4.2,3.4c2.5,0.7,2.9-1.4,2.9-1.4L150.7,53.4z"/>
</g>
<path class="st2" d="M82.9,21.5c-5.5,0-10-4.5-10-10c0-5.5,4.5-10,10-10c5.5,0,10,4.5,10,10C92.9,17,88.4,21.5,82.9,21.5z M82.9,3.7
	c-4.3,0-7.8,3.5-7.8,7.8c0,4.3,3.5,7.8,7.8,7.8c4.3,0,7.8-3.5,7.8-7.8C90.7,7.2,87.2,3.7,82.9,3.7z"/>
<path class="st1" d="M285,93.5c-3.9,0-7.1-3.2-7.1-7.1c0-3.9,3.2-7.1,7.1-7.1s7.1,3.2,7.1,7.1C292.1,90.3,288.9,93.5,285,93.5z
	 M285,81.5c-2.7,0-4.9,2.2-4.9,4.9c0,2.7,2.2,4.9,4.9,4.9c2.7,0,4.9-2.2,4.9-4.9C289.9,83.7,287.7,81.5,285,81.5z"/>
<path class="st1" d="M52.6,221.6l-4.8-9.8l9.8-4.8l4.8,9.8L52.6,221.6z M50.7,212.8l2.9,5.9l5.9-2.9l-2.9-5.9L50.7,212.8z"/>
<path class="st1" d="M194.6,69.9l-4.8-9.8l9.8-4.8l4.8,9.8L194.6,69.9z M192.7,61.1l2.9,5.9l5.9-2.9l-2.9-5.9L192.7,61.1z"/>
<rect x="35.8" y="162.7" transform="matrix(0.8974 -0.4412 0.4412 0.8974 -68.973 33.8562)" class="st1" width="5" height="5"/>
<g>
	<g>
		<path class="st12" d="M215.8,16.8L189,1.4c-0.5-0.3-1-0.3-1.4-0.1c0,0,0,0,0,0l-2.6,1.5c0,0,1.1,0.4,1.8,0.7v19.5
			c0,1.6,1,3.4,2.2,4.1l25.6,14.8V44l2.6-1.5l0,0c0.4-0.3,0.7-0.9,0.7-1.7V20.9C217.9,19.3,217,17.5,215.8,16.8z"/>
		<path class="st10" d="M213.1,43.9l-26.7-15.4c-1.2-0.7-2.2-2.5-2.2-4.1V4.5c0-1.6,1-2.3,2.2-1.6l26.7,15.4
			c1.2,0.7,2.2,2.5,2.2,4.1v19.9C215.3,43.9,214.3,44.6,213.1,43.9z"/>
	</g>
	<g>
		<path class="st4" d="M195.4,21.6c0,1.2-0.8,1.6-1.8,1c-1-0.6-1.8-2-1.8-3.1c0-1.2,0.8-1.6,1.8-1C194.6,19.1,195.4,20.5,195.4,21.6
			z"/>
		<path class="st4" d="M200.8,24.8c0,1.2-0.8,1.6-1.8,1s-1.8-2-1.8-3.1c0-1.2,0.8-1.6,1.8-1C200,22.2,200.8,23.6,200.8,24.8z"/>
		<path class="st4" d="M206.3,28c0,1.2-0.8,1.6-1.8,1c-1-0.6-1.8-2-1.8-3.1c0-1.2,0.8-1.6,1.8-1C205.5,25.4,206.3,26.8,206.3,28z"/>
	</g>
</g>
<g>
	<g>
		<path class="st1" d="M30.9,185.9L4.7,170.8c-0.5-0.3-1-0.3-1.4-0.1c0,0,0,0,0,0l-2.5,1.5c0,0,1.1,0.4,1.8,0.7v19.1
			c0,1.6,0.9,3.4,2.1,4l25.1,14.5v2.2l2.6-1.5l0,0c0.4-0.3,0.7-0.8,0.7-1.7V190C33,188.4,32.1,186.6,30.9,185.9z"/>
		<path class="st2" d="M28.3,212.6L2.1,197.4c-1.2-0.7-2.1-2.5-2.1-4v-19.5c0-1.6,0.9-2.3,2.1-1.6l26.2,15.1c1.2,0.7,2.1,2.5,2.1,4
			V211C30.5,212.5,29.5,213.2,28.3,212.6z"/>
	</g>
	<g>
		<path class="st4" d="M10.9,190.7c0,1.1-0.8,1.6-1.8,1c-1-0.6-1.8-1.9-1.8-3.1c0-1.1,0.8-1.6,1.8-1
			C10.1,188.2,10.9,189.6,10.9,190.7z"/>
		<path class="st4" d="M16.3,193.8c0,1.1-0.8,1.6-1.8,1c-1-0.6-1.8-1.9-1.8-3.1c0-1.1,0.8-1.6,1.8-1
			C15.5,191.3,16.3,192.7,16.3,193.8z"/>
		<path class="st4" d="M21.7,196.9c0,1.1-0.8,1.6-1.8,1c-1-0.6-1.8-1.9-1.8-3.1c0-1.1,0.8-1.6,1.8-1
			C20.9,194.4,21.7,195.8,21.7,196.9z"/>
	</g>
</g>
</svg>
