<?xml version="1.0" encoding="UTF-8"?>
<!-- Generator: Adobe Illustrator 23.0.3, SVG Export Plug-In . SVG Version: 6.00 Build 0)  -->
<svg xmlns="http://www.w3.org/2000/svg" xmlns:xlink="http://www.w3.org/1999/xlink" x="0px" y="0px" viewBox="0 0 500 500" style="enable-background:new 0 0 500 500;" xml:space="preserve">
<style type="text/css">
	.st0{display:none;}
	.st1{display:inline;fill:#10CCCC;}
	.st2{fill:#4F4F99;}
	.st3{fill:#5E5EBC;}
	.st4{fill:#9494F7;}
	.st5{fill:#DFE2FC;}
	.st6{opacity:0.14;fill:#FFFFFF;}
	.st7{fill:#424284;}
	.st8{fill:#FFFFFF;}
	.st9{fill-rule:evenodd;clip-rule:evenodd;fill:#4F4F99;}
	.st10{fill-rule:evenodd;clip-rule:evenodd;fill:#DFE2FC;}
	.st11{fill-rule:evenodd;clip-rule:evenodd;fill:#9494F7;}
	.st12{fill-rule:evenodd;clip-rule:evenodd;fill:#FFFFFF;}
	.st13{font-family:'BebasNeueBold';}
	.st14{font-size:15.6449px;}
	.st15{letter-spacing:3;}
	.st16{font-size:6.092px;}
	.st17{letter-spacing:1;}
	.st18{opacity:0.32;fill-rule:evenodd;clip-rule:evenodd;fill:#FFFFFF;}
	.st19{fill:#444230;}
	.st20{fill:#0EAAA6;}
	.st21{fill:#10847E;}
</style>
<g id="BACKGROUND" class="st0">
	<rect x="0.24" class="st1" width="500" height="500"></rect>
</g>
<g id="OBJECTS">
	<g>
		<g>
			<g>
				<path class="st2" d="M304.52,135.43l2.16,133.9c0.04,2.39-1.21,4.61-3.27,5.83l-146.96,86.62c-4.39,2.59-9.93-0.52-10.01-5.61      l-2.13-132.46c-0.04-2.37,1.19-4.58,3.23-5.8l146.94-88.06C298.85,127.21,304.44,130.32,304.52,135.43z"></path>
				<path class="st3" d="M307.46,137.07l2.16,133.9c0.04,2.39-1.21,4.61-3.27,5.83l-146.96,86.62c-4.39,2.59-9.93-0.52-10.01-5.61      l-2.13-132.46c-0.04-2.37,1.19-4.58,3.23-5.8l146.94-88.06C301.79,128.85,307.38,131.96,307.46,137.07z"></path>
				<path class="st2" d="M299.19,151.19l1.85,114.73c0.03,2.05-1.04,3.95-2.8,4.99L166.2,349.22c-3.76,2.21-8.51-0.45-8.58-4.81      l-3.06-113.39c-0.03-2.03,1.02-3.93,2.76-4.97l133.25-79.65C294.33,144.15,299.12,146.81,299.19,151.19z"></path>
			</g>
		</g>
		<g>
			<g>
				<path class="st3" d="M427.72,345.67l-115.7-67.44c-2.06-1.2-4.62-1.2-6.68,0l-147.48,85.73c-4.4,2.56-4.41,8.91-0.01,11.48      l114.45,66.71c2.05,1.19,4.58,1.21,6.64,0.03l148.73-85.01C432.11,354.64,432.13,348.25,427.72,345.67z"></path>
				<g>
					<path class="st4" d="M427.73,342.31l-115.7-67.44c-2.06-1.2-4.62-1.2-6.68,0L157.87,360.6c-4.4,2.56-4.41,8.92-0.01,11.48       l114.45,66.71c2.05,1.19,4.58,1.21,6.64,0.03l148.73-85.01C432.12,351.27,432.15,344.88,427.73,342.31z"></path>
				</g>
				<path class="st5" d="M373.76,372.12l-37.41-21.81c-0.67-0.39-1.49-0.39-2.16,0l-47.69,27.72c-1.42,0.83-1.42,2.88,0,3.71      l37.01,21.57c0.66,0.39,1.48,0.39,2.15,0.01l48.1-27.49C375.18,375.02,375.18,372.95,373.76,372.12z"></path>
			</g>
			<g>
				<path class="st3" d="M330.54,338.48l34.26-19.8c1.61-0.93,2.16-2.99,1.23-4.6l0,0c-0.93-1.61-2.99-2.16-4.6-1.23l-37.62,21.74"></path>
				<path class="st3" d="M321.7,335.74l-100.07,57.83c-1.61,0.93-2.16,2.99-1.23,4.6l0,0c0.93,1.61,2.99,2.16,4.6,1.23l103.43-59.77      "></path>
				<path class="st3" d="M322.33,331.99l34.26-19.8c1.61-0.93,2.16-2.99,1.23-4.6l0,0c-0.93-1.61-2.99-2.16-4.6-1.23l-37.62,21.74"></path>
				<path class="st3" d="M313.5,329.26l-100.07,57.83c-1.61,0.93-2.16,2.99-1.23,4.6l0,0c0.93,1.61,2.99,2.16,4.6,1.23l103.43-59.77      "></path>
				<path class="st3" d="M313.2,326.81l34.26-19.8c1.61-0.93,2.16-2.99,1.23-4.6l0,0c-0.93-1.61-2.99-2.16-4.6-1.23l-37.62,21.74"></path>
				<path class="st3" d="M304.36,324.07L204.29,381.9c-1.61,0.93-2.16,2.99-1.23,4.6l0,0c0.93,1.61,2.99,2.16,4.6,1.23l103.43-59.77      "></path>
				<path class="st3" d="M304.5,320.83l34.26-19.8c1.61-0.93,2.16-2.99,1.23-4.6l0,0c-0.93-1.61-2.99-2.16-4.6-1.23l-37.62,21.74"></path>
				<path class="st3" d="M295.67,318.09L195.6,375.92c-1.61,0.93-2.16,2.99-1.23,4.6l0,0c0.93,1.61,2.99,2.16,4.6,1.23l103.43-59.77      "></path>
				<path class="st3" d="M295.25,315.44l34.26-19.8c1.61-0.93,2.16-2.99,1.23-4.6l0,0c-0.93-1.61-2.99-2.16-4.6-1.23l-37.62,21.74"></path>
				<path class="st3" d="M286.42,312.71l-100.07,57.83c-1.61,0.93-2.16,2.99-1.23,4.6l0,0c0.93,1.61,2.99,2.16,4.6,1.23      l103.43-59.77"></path>
			</g>
		</g>
		<path class="st6" d="M305.67,274.86l-147.48,85.73c-4.4,2.56-4.41,8.92-0.01,11.48l114.45,66.71c2.05,1.19,4.58,1.21,6.64,0.03    l1.08-0.62l29.86-164.11C308.68,273.8,307.07,274.05,305.67,274.86z"></path>
		<polygon class="st7" points="207.82,195.87 191.39,334.28 223.16,315.44 240.57,176.29   "></polygon>
		<polyline class="st7" points="260.22,164.54 245.14,302.4 256.85,295.46 272.64,157.12   "></polyline>
	</g>
	<g>
		<path class="st2" d="M173.15,272.42c-1.6,0.92-3.1,2.32-4.37,3.96c0.14-1,0.23-1.99,0.23-2.96c0-8.92-6.33-12.57-14.08-8.11    c-5.47,3.15-10.22,9.54-12.55,16.17c-1.5-1.78-4.09-2.04-7.01-0.35c-4.61,2.66-8.38,9.18-8.38,14.5c0,0.42,0.03,0.82,0.08,1.2    c-0.03,0.02-0.05,0.03-0.08,0.04c-5.06,2.92-9.2,10.07-9.2,15.9c0,5.83,4.14,8.22,9.2,5.3l46.17-26.31    c4.61-2.66,8.38-9.18,8.38-14.5C181.54,271.94,177.76,269.77,173.15,272.42z"></path>
		<path class="st8" d="M175.13,273.56c-1.6,0.92-3.1,2.32-4.37,3.96c0.14-1,0.23-1.99,0.23-2.96c0-8.92-6.33-12.57-14.08-8.11    c-5.47,3.15-10.22,9.54-12.55,16.17c-1.5-1.78-4.09-2.04-7.01-0.35c-4.61,2.66-8.38,9.18-8.38,14.5c0,0.42,0.03,0.82,0.08,1.2    c-0.03,0.02-0.05,0.03-0.08,0.04c-5.06,2.92-9.2,10.07-9.2,15.9c0,5.83,4.14,8.22,9.2,5.3l46.17-26.31    c4.61-2.66,8.38-9.18,8.38-14.5C183.52,273.08,179.75,270.9,175.13,273.56z"></path>
	</g>
	<g>
		<path class="st2" d="M126.6,246.73c-1.6,0.92-3.09,2.32-4.37,3.96c0.14-1,0.23-1.99,0.23-2.96c0-8.92-6.33-12.57-14.08-8.11    c-5.47,3.15-10.22,9.54-12.55,16.17c-1.5-1.78-4.09-2.04-7.01-0.35c-4.61,2.66-8.38,9.18-8.38,14.5c0,0.42,0.03,0.82,0.08,1.2    c-0.03,0.02-0.05,0.03-0.08,0.04c-5.06,2.92-9.2,10.07-9.2,15.9c0,5.83,4.14,8.22,9.2,5.3l46.17-26.31    c4.61-2.66,8.38-9.18,8.38-14.5C134.99,246.24,131.21,244.07,126.6,246.73z"></path>
		<path class="st8" d="M128.58,247.86c-1.6,0.92-3.1,2.32-4.37,3.96c0.14-1,0.23-1.99,0.23-2.96c0-8.92-6.33-12.57-14.08-8.11    c-5.47,3.15-10.22,9.54-12.55,16.17c-1.5-1.78-4.09-2.04-7.01-0.35c-4.61,2.66-8.38,9.18-8.38,14.5c0,0.42,0.03,0.82,0.08,1.2    c-0.03,0.02-0.05,0.03-0.08,0.04c-5.06,2.92-9.2,10.07-9.2,15.9c0,5.83,4.14,8.22,9.2,5.3l46.17-26.31    c4.61-2.66,8.38-9.18,8.38-14.5C136.97,247.38,133.19,245.21,128.58,247.86z"></path>
	</g>
	<g>
		<path class="st9" d="M231.87,119.29v153.48c0,5.45,5.89,8.85,10.61,6.13l138.82-80.01c2.19-1.26,3.54-3.6,3.54-6.13l0-153.48    c0-5.45-5.89-8.85-10.61-6.13l-138.82,80.01C233.23,114.42,231.87,116.76,231.87,119.29z"></path>
		<path class="st10" d="M237.34,122.43v152.52c0,5.45,5.89,8.85,10.61,6.13l138.82-80.01c2.19-1.26,3.54-3.6,3.54-6.13l0-152.53    c0-5.45-5.89-8.85-10.61-6.13L240.88,116.3C238.69,117.56,237.34,119.9,237.34,122.43z"></path>
		<g>
			<path class="st11" d="M288.52,109.45v44.14c0,1.87,2.02,3.04,3.65,2.11l47.68-27.48c0.75-0.43,1.22-1.24,1.22-2.11V81.97     c0-1.87-2.02-3.04-3.65-2.11l-47.68,27.48C288.99,107.78,288.52,108.58,288.52,109.45z"></path>
		</g>
		<path class="st12" d="M257.25,208.97L257.25,208.97c0,2.44,2.64,3.97,4.75,2.75l114.32-65.89c0.98-0.57,1.59-1.61,1.59-2.75l0,0    c0-2.44-2.64-3.97-4.75-2.75l-114.32,65.89C257.86,206.79,257.25,207.83,257.25,208.97z"></path>
		<path class="st12" d="M257.25,224.23L257.25,224.23c0,2.44,2.64,3.97,4.75,2.75l114.32-65.89c0.98-0.57,1.59-1.61,1.59-2.75l0,0    c0-2.44-2.64-3.97-4.75-2.75l-114.32,65.89C257.86,222.05,257.25,223.1,257.25,224.23z"></path>
		<path class="st12" d="M257.25,239.49L257.25,239.49c0,2.44,2.64,3.97,4.75,2.75l114.32-65.89c0.98-0.57,1.59-1.61,1.59-2.75l0,0    c0-2.44-2.64-3.97-4.75-2.75l-114.32,65.89C257.86,237.31,257.25,238.36,257.25,239.49z"></path>
		<g>
			<path class="st2" d="M314.21,118.54c-3.82,2.2-6.95,0.4-6.95-4c0-4.4,3.13-9.81,6.95-12.01c3.82-2.2,6.95-0.4,6.95,4     C321.16,110.93,318.03,116.34,314.21,118.54z"></path>
			<path class="st9" d="M301.23,140.04v2.25c0,1.57,1.7,2.55,3.06,1.77l24.73-14.25c0.63-0.36,1.02-1.04,1.02-1.77l0,0     c0-7.07-7.65-11.49-13.77-7.96l-5.26,3.03C304.96,126.6,301.23,133.05,301.23,140.04z"></path>
		</g>
		<text transform="matrix(0.8633 -0.5046 0 1 287.4165 178.1398)" class="st2 st13 st14 st15">register</text>
		<text transform="matrix(0.8633 -0.5046 0 1 266.2029 207.7611)" class="st4 st13 st16 st17">name</text>
		<text transform="matrix(0.8633 -0.5046 0 1 266.2029 223.2151)" class="st4 st13 st16 st17">e-mail</text>
		<text transform="matrix(0.8633 -0.5046 0 1 267.4673 237.6856)" class="st4 st13 st16 st17">password</text>
	</g>
	<path class="st18" d="M237.34,122.36v145.43c0,5.44,152.84-225.37,152.84-225.37c0-5.44-5.89-8.85-10.6-6.13l-138.69,79.94   C238.69,117.49,237.34,119.83,237.34,122.36z"></path>
	<g>
		<path class="st2" d="M420.85,60.03c-1.6,0.92-3.1,2.32-4.37,3.96c0.14-1,0.23-1.99,0.23-2.96c0-8.92-6.33-12.57-14.08-8.11    c-5.47,3.15-10.22,9.54-12.55,16.17c-1.5-1.78-4.09-2.04-7.01-0.35c-4.61,2.66-8.38,9.18-8.38,14.5c0,0.42,0.03,0.82,0.08,1.2    c-0.03,0.02-0.05,0.03-0.08,0.04c-5.06,2.92-9.2,10.07-9.2,15.9c0,5.83,4.14,8.22,9.2,5.3l46.17-26.31    c4.61-2.66,8.38-9.18,8.38-14.5C429.23,59.55,425.46,57.37,420.85,60.03z"></path>
		<path class="st8" d="M422.83,61.17c-1.6,0.92-3.1,2.32-4.37,3.96c0.14-1,0.23-1.99,0.23-2.96c0-8.92-6.33-12.57-14.08-8.11    c-5.47,3.15-10.22,9.54-12.55,16.17c-1.5-1.78-4.09-2.04-7.01-0.35c-4.61,2.66-8.38,9.18-8.38,14.5c0,0.42,0.03,0.82,0.08,1.2    c-0.03,0.02-0.05,0.03-0.08,0.04c-5.06,2.92-9.2,10.07-9.2,15.9c0,5.83,4.14,8.22,9.2,5.3l46.17-26.31    c4.61-2.66,8.38-9.18,8.38-14.5C431.21,60.68,427.44,58.51,422.83,61.17z"></path>
	</g>
	<g>
		<path class="st5" d="M166.87,421.44l-36.59-21.33l-45.6,26.51l36.22,21.11l43.16-24.67C165.31,422.35,166.87,421.44,166.87,421.44    z"></path>
		<g>
			<path class="st4" d="M166.87,391.44l-36.59-21.33l-45.6,26.51l36.22,21.11l43.16-24.67     C165.31,392.35,166.87,391.44,166.87,391.44z"></path>
		</g>
		<path class="st19" d="M166.87,397.63l-36.59-21.33l-45.6,26.51l36.22,21.11l43.16-24.67    C165.31,398.54,166.87,397.63,166.87,397.63z"></path>
		<path class="st20" d="M150.62,368.11c-0.39-0.66-1.06-0.98-1.81-1.1c-2.79-0.45-5.62,3.09-8.53,5.42    c-0.67,0.54-2.89,2.35-3.63,0.34c-0.25-0.68,1.26-4.22,1.56-5.19c1.25-4.05,2.4-8.26,3.44-12.65c0.86-3.64,1.59-7.96-0.07-10.59    c-0.54-0.86-1.36-1.48-2.33-1.44c-1.1,0.05-2.22,0.94-3.23,1.86c-2.08,1.9-3.89,3.98-5.59,6.39c-0.78,1.11-1.81,2.17-2.91,2.24    c-1.49,0.09-2.39-1.61-2.88-3.27c-0.89-3-1.27-6.4-2.09-9.75c-0.86-3.51-2.31-7.15-4.93-9.44c-2.16-1.88-5.24-2.53-7.71-1.3    c-2.56,1.1-4.49,4.14-4.98,7.39c-0.61,4.02,0.56,8.01,2.12,11.36c1.48,3.19,3.31,5.96,4.51,8.94c0.66,1.64,1.04,3.73-0.12,5.17    c-0.88,1.09-2.34,1.41-3.65,1.44c-2.93,0.07-5.81,0.51-8.89,1.38c-1.53,0.43-3.15,1.02-4.19,2.23c-0.92,1.07-1.23,2.48-1.12,3.77    c0.36,3.94,4.13,6.25,7.44,7.86c3.89,1.89,7.64,3.47,11.26,4.77c0.85,0.3,4.21,0.93,4.45,1.67c0.71,2.19-2.08,3.62-2.92,4.06    c-3.8,1.98-8.51,3.11-10.59,7.04c-0.57,1.08-0.94,2.21-0.81,3.19c0.19,1.47,1.45,2.37,2.83,2.93c4.45,1.8,10.36,0.84,15.36-0.23    c3.88-0.83,7.67-1.97,11.31-3.28l1.9-0.71l1.52-1.75c2.79-3.27,5.46-6.67,7.92-10.21c3.03-4.36,6.28-9.4,7.46-14.43    C151.05,370.7,151.2,369.1,150.62,368.11z"></path>
		<path class="st21" d="M139.91,381.84c-0.31-0.38-0.77-0.51-1.25-0.52c-1.8-0.01-3.23,2.51-4.83,4.27    c-0.37,0.4-1.59,1.77-2.25,0.58c-0.23-0.4,0.37-2.79,0.46-3.42c0.39-2.68,0.69-5.45,0.9-8.32c0.18-2.38,0.21-5.17-1.1-6.67    c-0.43-0.49-1.01-0.8-1.61-0.67c-0.69,0.14-1.3,0.81-1.85,1.5c-1.12,1.41-2.05,2.9-2.89,4.59c-0.38,0.77-0.92,1.55-1.61,1.7    c-0.93,0.2-1.67-0.78-2.14-1.77c-0.86-1.8-1.44-3.91-2.29-5.94c-0.89-2.13-2.17-4.28-4.05-5.46c-1.55-0.97-3.56-1.07-4.99-0.05    c-1.5,0.95-2.41,3.06-2.4,5.16c0.02,2.59,1.16,4.99,2.47,6.94c1.25,1.86,2.68,3.43,3.73,5.19c0.58,0.97,1.03,2.24,0.44,3.27    c-0.44,0.77-1.33,1.12-2.16,1.27c-1.84,0.34-3.61,0.9-5.46,1.76c-0.92,0.43-1.88,0.96-2.42,1.83c-0.47,0.77-0.53,1.69-0.33,2.49    c0.62,2.45,3.23,3.53,5.47,4.21c2.64,0.8,5.16,1.42,7.57,1.88c0.56,0.11,2.74,0.16,2.97,0.61c0.66,1.31-0.95,2.49-1.44,2.85    c-2.19,1.63-5.05,2.81-5.97,5.5c-0.25,0.74-0.37,1.49-0.19,2.09c0.27,0.91,1.15,1.35,2.08,1.57c2.99,0.69,6.61-0.51,9.66-1.68    c2.36-0.91,4.64-2.01,6.8-3.2l1.13-0.63l0.78-1.26c1.43-2.34,2.77-4.75,3.97-7.23c1.47-3.05,3.02-6.55,3.26-9.84    C140.44,383.42,140.37,382.4,139.91,381.84z"></path>
		<polyline class="st3" points="120.9,447.73 120.9,417.74 166.87,391.44 166.87,421.44 120.9,447.73   "></polyline>
		<path class="st2" d="M84.68,396.62c0.28,0.38,0,30,0,30l36.22,21.11v-30L84.68,396.62z"></path>
	</g>
</g>
<g id="DESIGNED_BY_FREEPIK" class="st0">
</g>
</svg>
